<svg width="16" height="14" viewBox="0 0 16 14" fill="none" xmlns="http://www.w3.org/2000/svg">
<path d="M15.5996 7C15.5996 7.17238 15.5312 7.3377 15.4093 7.45959C15.2874 7.58149 15.1221 7.64996 14.9497 7.64996H2.21933L6.96 12.3898C7.02039 12.4502 7.06829 12.5219 7.10097 12.6008C7.13366 12.6797 7.15048 12.7643 7.15048 12.8497C7.15048 12.9351 7.13366 13.0196 7.10097 13.0985C7.06829 13.1774 7.02039 13.2491 6.96 13.3095C6.89961 13.3699 6.82792 13.4178 6.74902 13.4505C6.67012 13.4832 6.58555 13.5 6.50015 13.5C6.41475 13.5 6.33018 13.4832 6.25128 13.4505C6.17238 13.4178 6.10069 13.3699 6.0403 13.3095L0.190626 7.45985C0.130194 7.39949 0.0822537 7.3278 0.0495448 7.2489C0.0168358 7.16999 0 7.08541 0 7C0 6.91458 0.0168358 6.83001 0.0495448 6.7511C0.0822537 6.6722 0.130194 6.60051 0.190626 6.54015L6.0403 0.690476C6.16226 0.568516 6.32767 0.5 6.50015 0.5C6.67263 0.5 6.83804 0.568516 6.96 0.690476C7.08196 0.812435 7.15048 0.977848 7.15048 1.15033C7.15048 1.3228 7.08196 1.48821 6.96 1.61017L2.21933 6.35004H14.9497C15.1221 6.35004 15.2874 6.41851 15.4093 6.54041C15.5312 6.6623 15.5996 6.82762 15.5996 7Z" fill="#0F172A"/>
</svg>
