<svg width="37" height="37" viewBox="0 0 37 37" fill="none" xmlns="http://www.w3.org/2000/svg">
<path d="M29.6771 4.23962H7.32296C5.62008 4.23962 4.23962 5.62008 4.23962 7.32296V29.6771C4.23962 31.38 5.62008 32.7605 7.32296 32.7605H29.6771C31.38 32.7605 32.7605 31.38 32.7605 29.6771V7.32296C32.7605 5.62008 31.38 4.23962 29.6771 4.23962Z" stroke="black" stroke-linecap="round" stroke-linejoin="round"/>
<path d="M18.5 29.2917C24.4601 29.2917 29.2917 24.4601 29.2917 18.5C29.2917 12.54 24.4601 7.70837 18.5 7.70837C12.54 7.70837 7.70837 12.54 7.70837 18.5C7.70837 24.4601 12.54 29.2917 18.5 29.2917Z" stroke="black" stroke-linecap="round" stroke-linejoin="round"/>
<path d="M10.4709 20.7748L12.9122 18.7066L15.2108 20.229L19.6346 16.1498L21.8176 17.9027L25.8398 14.8M12.2377 25.2225V21.5017M15.3688 26.9029V22.1052M18.4999 27.4625V19.7064M21.6311 26.9029V19.8937M24.7622 24.9064V18.2989" stroke="black" stroke-linecap="round" stroke-linejoin="round"/>
</svg>
